<?xml version="1.0" encoding="UTF-8" standalone="no"?>
<!-- Created with Inkscape (http://www.inkscape.org/) -->

<svg
   xmlns:dc="http://purl.org/dc/elements/1.1/"
   xmlns:cc="http://creativecommons.org/ns#"
   xmlns:rdf="http://www.w3.org/1999/02/22-rdf-syntax-ns#"
   xmlns:svg="http://www.w3.org/2000/svg"
   xmlns="http://www.w3.org/2000/svg"
   xmlns:sodipodi="http://sodipodi.sourceforge.net/DTD/sodipodi-0.dtd"
   xmlns:inkscape="http://www.inkscape.org/namespaces/inkscape"
   width="1010.4"
   height="1010.4002"
   id="svg2"
   sodipodi:version="0.32"
   inkscape:version="0.48.4 r9939"
   version="1.0"
   sodipodi:docname="New_Zealand_RG-5.svg"
   inkscape:output_extension="org.inkscape.output.svg.inkscape">
  <defs
     id="defs4">
    <inkscape:perspective
       sodipodi:type="inkscape:persp3d"
       inkscape:vp_x="0 : 300.5 : 1"
       inkscape:vp_y="0 : 1000 : 0"
       inkscape:vp_z="601 : 300.5 : 1"
       inkscape:persp3d-origin="300.5 : 200.33333 : 1"
       id="perspective3380" />
    <inkscape:perspective
       id="perspective3990"
       inkscape:persp3d-origin="375 : 250 : 1"
       inkscape:vp_z="750 : 375 : 1"
       inkscape:vp_y="0 : 1000 : 0"
       inkscape:vp_x="0 : 375 : 1"
       sodipodi:type="inkscape:persp3d" />
  </defs>
  <sodipodi:namedview
     id="base"
     pagecolor="#ffffff"
     bordercolor="#666666"
     borderopacity="1.0"
     gridtolerance="10000"
     guidetolerance="10"
     objecttolerance="10"
     inkscape:pageopacity="0.0"
     inkscape:pageshadow="2"
     inkscape:zoom="0.44192573"
     inkscape:cx="251.22482"
     inkscape:cy="496.05361"
     inkscape:document-units="px"
     inkscape:current-layer="layer1"
     width="601px"
     height="601px"
     inkscape:window-width="1280"
     inkscape:window-height="1001"
     inkscape:window-x="-8"
     inkscape:window-y="-8"
     showgrid="false"
     fit-margin-top="0.2"
     fit-margin-left="0.2"
     fit-margin-right="0.2"
     fit-margin-bottom="0.2"
     inkscape:window-maximized="1"
     showguides="true"
     inkscape:guide-bbox="true" />
  <metadata
     id="metadata7">
    <rdf:RDF>
      <cc:Work
         rdf:about="">
        <dc:format>image/svg+xml</dc:format>
        <dc:type
           rdf:resource="http://purl.org/dc/dcmitype/StillImage" />
        <dc:title></dc:title>
      </cc:Work>
    </rdf:RDF>
  </metadata>
  <g
     inkscape:label="Layer 1"
     inkscape:groupmode="layer"
     id="layer1"
     transform="translate(1515.529,3241.075)">
    <rect
       style="color:#000000;fill:#000000;fill-opacity:1;fill-rule:nonzero;stroke:none;stroke-width:0.8735441;marker:none;visibility:visible;display:inline;overflow:visible"
       id="rect3653"
       width="0"
       height="27.202072"
       x="578.73834"
       y="298.1684"
       rx="249.48199"
       ry="27.202072" />
    <path
       inkscape:connector-curvature="0"
       id="path3940"
       d="m -1219.5067,-3240.8749 -295.8223,295.8221 10e-5,418.3556 295.822,295.8224 418.3557,-3e-4 295.8222,-295.8221 -2e-4,-418.3558 -295.822,-295.822 z"
       style="fill:#000000;fill-opacity:1;stroke:none" />
    <path
       style="fill:#ffffff;fill-opacity:1;stroke:none"
       d="m -803.222,-2235.875 -414.2141,2e-4 -292.8925,-292.8933 -4e-4,-414.2135 292.8936,-292.893 414.2134,0 292.8932,292.8929 0,414.2137 z"
       id="path3831"
       inkscape:connector-curvature="0"
       sodipodi:nodetypes="ccccccccc" />
    <path
       sodipodi:nodetypes="ccccccccc"
       inkscape:connector-curvature="0"
       id="path3045"
       d="m -823.9328,-2285.8751 -372.7922,3e-4 -263.6038,-263.604 -2e-4,-372.7921 263.6041,-263.6034 372.7919,-1e-4 263.604,263.6035 0,372.7923 z"
       style="fill:#d40000;fill-opacity:1;stroke:none" />
    <path
       inkscape:connector-curvature="0"
       d="m -959.1594,-2735.6543 0,79.2639 c 0,18.3926 14.9677,33.4021 33.3371,33.4021 18.3569,0 33.3371,-15.0095 33.3371,-33.4021 l 0,-79.2639 0,-79.2513 c 0,-18.3926 -14.9802,-33.4021 -33.3371,-33.4021 -18.3694,0 -33.3371,15.0095 -33.3371,33.4021 z m -41.4005,0 0,74.8961 c 0,41.2414 33.5639,74.8834 74.7376,74.8834 41.1611,0 74.7502,-33.339 74.851,-74.631 l 0.1109,-75.1485 -0.1109,-75.1359 c -0.1008,-41.292 -33.6899,-74.631 -74.851,-74.631 -41.1737,0 -74.7376,33.642 -74.7376,74.8834 z m 231.0039,-18.5441 0,-89.7415 37.4822,0 c 16.0889,0 29.2046,13.1412 29.2046,29.2616 l 0.2117,31.3067 c 0,16.1203 -13.1156,29.2615 -29.192,29.2615 l -37.709,-0.09 z m 41.1863,37.4164 -41.1863,0.1212 0,126.855 -41.6147,0 0,-254.1393 0,-37.3281 82.927,0.1012 c 36.4868,-0.1012 66.3466,29.8045 66.3466,66.4888 l 0,0.2625 0,30.9027 0,0.1413 c 0,36.6717 -29.8598,66.5898 -66.4726,66.5898 m -630.2807,56.2762 c 0.1008,41.2919 33.6647,74.6309 74.8258,74.6309 41.1738,0 74.7629,-33.642 74.7629,-74.8834 0,-18.7209 -7.5978,-37.4417 -19.9947,-50.8607 l -76.0354,-83.1645 c -5.0517,-5.4161 -7.887,-12.7247 -7.887,-19.9201 0,-16.1078 13.0904,-29.2365 29.1542,-29.2365 16.0764,0 29.1795,13.1287 29.1795,29.2365 0,0 0,0.2325 0.025,0.1212 l 41.5013,-0.09 c 0.1008,0.01 0.1008,-0.2525 0.1008,-0.2525 0,-39.0827 -31.8001,-70.9449 -70.8068,-70.9449 -38.9814,0 -70.7815,31.8622 -70.7815,70.9449 0,17.7236 6.9164,35.1821 18.9616,48.235 l 76.2873,83.2151 c 5.6192,6.135 8.8829,14.353 8.8829,22.7099 0,18.3926 -14.9803,33.4021 -33.3498,33.4021 -18.3568,0 -33.3245,-15.0095 -33.3245,-33.4021 l 0,-0.025 -0.2117,-12.2071 -41.4005,0 0.1109,12.4848 z m 328.5205,-220.7623 -149.2863,0 0,37.328 53.6216,0 0,254.1393 41.6273,0 0,-254.1393 54.0374,0 z"
       style="fill:#ffffff;fill-opacity:1;fill-rule:evenodd;stroke:none"
       id="path3151"
       sodipodi:nodetypes="cssscsssccsscccsscccsccccccccccccsccsccssccssccccssccssscccccccccccccc" />
  </g>
</svg>
