<?xml version="1.0" encoding="UTF-8" standalone="no"?>
<!-- Created with Inkscape (http://www.inkscape.org/) -->

<svg
   xmlns:dc="http://purl.org/dc/elements/1.1/"
   xmlns:cc="http://creativecommons.org/ns#"
   xmlns:rdf="http://www.w3.org/1999/02/22-rdf-syntax-ns#"
   xmlns:svg="http://www.w3.org/2000/svg"
   xmlns="http://www.w3.org/2000/svg"
   xmlns:sodipodi="http://sodipodi.sourceforge.net/DTD/sodipodi-0.dtd"
   xmlns:inkscape="http://www.inkscape.org/namespaces/inkscape"
   width="502.39999"
   height="445.55988"
   id="svg2"
   sodipodi:version="0.32"
   inkscape:version="0.48.4 r9939"
   version="1.0"
   sodipodi:docname="Slovenia_road_sign_I-34.svg"
   inkscape:output_extension="org.inkscape.output.svg.inkscape"
   sodipodi:modified="true">
  <defs
     id="defs4" />
  <sodipodi:namedview
     id="base"
     pagecolor="#ffffff"
     bordercolor="#666666"
     borderopacity="1.0"
     gridtolerance="10000"
     guidetolerance="10"
     objecttolerance="10"
     inkscape:pageopacity="0.0"
     inkscape:pageshadow="2"
     inkscape:zoom="1.2518409"
     inkscape:cx="302.83761"
     inkscape:cy="200.17548"
     inkscape:document-units="px"
     inkscape:current-layer="layer1"
     showgrid="true"
     showguides="true"
     width="2700px"
     height="1500px"
     inkscape:window-width="1280"
     inkscape:window-height="1001"
     inkscape:window-x="-8"
     inkscape:window-y="-8"
     fit-margin-top="1.2"
     fit-margin-left="1.2"
     fit-margin-right="1.2"
     fit-margin-bottom="1.2"
     inkscape:window-maximized="1" />
  <metadata
     id="metadata7">
    <rdf:RDF>
      <cc:Work
         rdf:about="">
        <dc:format>image/svg+xml</dc:format>
        <dc:type
           rdf:resource="http://purl.org/dc/dcmitype/StillImage" />
        <dc:title></dc:title>
      </cc:Work>
    </rdf:RDF>
  </metadata>
  <g
     inkscape:label="Layer 1"
     inkscape:groupmode="layer"
     id="layer1"
     transform="translate(2002.9419,1318.6117)">
    <path
       style="fill:#ffffff;fill-opacity:1;fill-rule:evenodd;stroke:#000000;stroke-width:2;stroke-miterlimit:4;stroke-opacity:1;stroke-dasharray:none"
       d="m -1751.7419,-874.25184 c -9.7444,0 -19.1235,-5.4404 -23.7188,-13.875 l -222.75,-388.65626 c -2.1724,-3.9703 -3.5312,-9.0163 -3.5312,-13.7187 0,-14.9943 11.9924,-27.1503 26.9687,-26.9063 l 446.0625,0 c 14.9763,-0.244 26.9688,11.912 26.9688,26.9063 0,4.7024 -1.3589,9.7484 -3.5313,13.7187 l -222.75,388.65626 c -4.5953,8.4346 -13.9743,13.875 -23.7187,13.875 z"
       id="path5908"
       inkscape:connector-curvature="0"
       sodipodi:nodetypes="sccsccsccs" />
    <path
       style="fill:#d40000;fill-opacity:1;fill-rule:evenodd;stroke:none"
       d="m -1751.7421,-883.33164 c 6.4049,0 12.3777,-3.5624 15.5625,-9.0625 l 223,-388.65626 c 3.1667,-5.5418 3.1844,-12.5729 0,-18.1563 -3.1962,-5.5834 -9.2859,-9.0803 -15.625,-9.0625 l -445.875,0 c -6.3391,-0.018 -12.4288,3.4791 -15.625,9.0625 -3.1844,5.5834 -3.1667,12.6145 0,18.1563 l 223,388.65626 c 3.1848,5.5001 9.1576,9.0625 15.5625,9.0625 z"
       id="path5916"
       inkscape:connector-curvature="0"
       sodipodi:nodetypes="sccccccccs" />
    <path
       inkscape:connector-curvature="0"
       d="m -1922.7069,-1259.9816 341.93,0 -170.965,298.32956 z"
       style="fill:#ffffff;fill-opacity:1;fill-rule:evenodd;stroke:none"
       id="path5920"
       sodipodi:nodetypes="cccc" />
  </g>
</svg>
